# AST/ASF file generated using VICON BodyLanguage
# -----------------------------------------------
:version 1.10
:name VICON
:units
  mass 1.0
  length 0.45
  angle deg
:documentation
   .ast/.asf automatically generated from VICON data using
   VICON BodyBuilder and BodyLanguage model FoxedUp or BRILLIANT.MOD
:root
   order TX TY TZ RX RY RZ
   axis XYZ
   position 0 0 0  
   orientation 0 0 0 
:bonedata
  begin
     id 1 
     name lhipjoint
     direction 0.61522 -0.761478 0.204097 
     length 2.55743 
     axis 0 0 0  XYZ
  end
  begin
     id 2 
     name lfemur
     direction 0.34202 -0.939693 0  
     length 7.61162  
     axis 0 0 20  XYZ
    dof rx ry rz
    limits (-160.0 20.0)
           (-70.0 70.0)
           (-60.0 70.0)
  end
  begin
     id 3 
     name ltibia
     direction 0.34202 -0.939693 0   
     length 8.12393   
     axis 0 0 20   XYZ
    dof rx
    limits (-10.0 170.0)
  end
  begin
     id 4 
     name lfoot
     direction 0.0841971 -0.23133 0.969225   
     length 2.3572   
     axis -90 7.62852e-016 20   XYZ
    dof rx rz
    limits (-45.0 90.0)
           (-70.0 20.0)
  end
  begin
     id 5 
     name ltoes
     direction 1.53562e-011 -4.22209e-011 1   
     length 1.17993   
     axis -90 7.62852e-016 20   XYZ
    dof rx
    limits (-90.0 20.0)
  end
  begin
     id 6 
     name rhipjoint
     direction -0.625247 -0.75382 0.202044   
     length 2.58341  
     axis 0 0 0  XYZ 
  end
  begin
     id 7 
     name rfemur
     direction -0.34202 -0.939693 0   
     length 7.42147   
     axis 0 0 -20   XYZ
    dof rx ry rz
    limits (-160.0 20.0)
           (-70.0 70.0)
           (-70.0 60.0)
  end
  begin
     id 8 
     name rtibia
     direction -0.34202 -0.939693 0   
     length 8.20893   
     axis 0 0 -20   XYZ
    dof rx
    limits (-10.0 170.0)
 end
 begin
     id 9 
     name rfoot
     direction -0.124331 -0.341598 0.931586   
     length 2.45604  
     axis -90 -7.62852e-016 -20   XYZ
    dof rx rz
    limits (-45.0 90.0)
           (-20.0 70.0)
  end
  begin
     id 10 
     name rtoes
     direction -1.5353e-011 -4.2199e-011 1   
     length 1.21323   
     axis -90 -7.62852e-016 -20   XYZ
    dof rx
    limits (-90.0 20.0)
  end
  begin
     id 11 
     name lowerback
     direction -0.0218484 0.994884 -0.0986303   
     length 2.00523   
     axis 0 0 0   XYZ
    dof rx ry rz
    limits (-20.0 45.0)
           (-30.0 30.0)
           (-30.0 30.0)
  end
  begin
     id 12 
     name upperback
     direction -0.0097305 0.999717 -0.0217111   
     length 2.01352   
     axis 0 0 0   XYZ
    dof rx ry rz
    limits (-20.0 45.0)
           (-30.0 30.0)
           (-30.0 30.0)
  end
  begin
     id 13 
     name thorax
     direction -0.000928262 0.999699 0.0245198   
     length 2.02938   
     axis 0 0 0   XYZ
    dof rx ry rz
    limits (-20.0 45.0)
           (-30.0 30.0)
           (-30.0 30.0)
  end
  begin
     id 14 
     name lowerneck
     direction -0.0307979 0.998024 0.0547665   
     length 1.77263   
     axis 0 0 0   XYZ
    dof rx ry rz
    limits (-20.0 45.0)
           (-30.0 30.0)
           (-30.0 30.0)
  end
  begin
     id 15 
     name upperneck
     direction 0.0531587 0.996611 -0.0627734   
     length 1.77971   
     axis 0 0 0   XYZ
    dof rx ry rz
    limits (-20.0 45.0)
           (-30.0 30.0)
           (-30.0 30.0)
  end
  begin
     id 16
     name head
     direction 0.0213833 0.999404 -0.0271147  
     length 1.78263  
     axis 0 0 0   XYZ
    dof rx ry rz
    limits (-20.0 45.0)
           (-30.0 30.0)
           (-30.0 30.0)
  end
  begin
     id 17 
     name lclavicle
     direction 0.940017 0.332249 -0.0773233  
     length 3.73315  
     axis 0 0 0   XYZ
    dof ry rz
    limits (-20.0 10.0)
           (0.0 20.0)
  end
  begin
     id 18 
     name lhumerus
     direction 1 -4.48944e-011 7.52288e-028   
     length 5.40188   
     axis 180 -30 -90   XYZ
    dof rx ry rz
    limits (-60.0 90.0)
           (-90.0 90.0)
           (-90.0 90.0)
  end
  begin
     id 19
     name lradius
     direction 1 -4.48988e-011 1.48381e-027   
     length 3.68559   
     axis 180 -30 -90   XYZ
    dof rx
    limits (-10.0 170.0)
  end
  begin
     id 20
     name lwrist
     direction 1 -4.48925e-011 2.56952e-028   
     length 1.84279   
     axis -5.12785e-016 90 90   XYZ
    dof ry
    limits (-180.0 0.0)
 end
  begin
     id 21 
     name lhand
     direction 1 -4.49009e-011 5.13905e-028   
     length 0.61753   
     axis -3.27915e-016 90 90   XYZ
    dof rx rz
    limits (-90.0 90.0)
           (-45.0 45.0)
  end
  begin
     id 22 
     name lfingers
     direction 1 -4.49012e-011 1.02781e-027   
     length 0.497868   
     axis -6.5583e-016 90 90   XYZ
    dof rx
    limits (0.0 90.0)
  end
  begin
     id 23
     name lthumb
     direction 0.707107 -6.34987e-011 0.707107   
     length 0.714842   
     axis -90 45 2.85299e-015   XYZ
    dof rx rz
    limits (-45.0 45.0)
           (-45.0 45.0)
  end
  begin
     id 24 
     name rclavicle
     direction -0.9009 0.425937 -0.0834057   
     length 3.27864  
     axis 0 0 0   XYZ 
    dof ry rz
    limits (-10.0 20.0)
           (-20.0 0.0)
  end
  begin
     id 25 
     name rhumerus
     direction -1 -4.48953e-011 -1.03572e-027  
     length 6.1067   
     axis 180 30 90   XYZ
    dof rx ry rz
    limits (-90.0 60.0)
           (-90.0 90.0)
           (-90.0 90.0)
  end
  begin
     id 26 
     name rradius
     direction -1 -4.48975e-011 1.20742e-027   
     length 3.63052   
     axis 180 30 90   XYZ
    dof rx
    limits (-10.0 170.0)
  end
  begin
     id 27 
     name rwrist
     direction -1 -4.49017e-011 2.56952e-028   
     length 1.81526   
     axis -5.12785e-016 -90 -90   XYZ
    dof ry
    limits (-180.0 0.0)
  end
  begin
     id 28
     name rhand
     direction -1 -4.48832e-011 5.13905e-028   
     length 0.583848   
     axis -3.27915e-016 -90 -90   XYZ
    dof rx rz
    limits (-90.0 90.0)
           (-45.0 45.0)
  end
  begin
     id 29
     name rfingers
     direction -1 -4.48729e-011 1.02781e-027   
     length 0.470713   
     axis -6.5583e-016 -90 -90   XYZ
    dof rx
    limits (0.0 90.0)
  end
  begin
     id 30
     name rthumb
     direction -0.707107 -6.34964e-011 0.707107   
     length 0.675852   
     axis -90 -45 -2.85299e-015   XYZ
    dof rx rz
    limits (-45.0 45.0)
           (-45.0 45.0)
  end
:hierarchy
  begin
    root lhipjoint rhipjoint lowerback
    lhipjoint lfemur
    lfemur ltibia
    ltibia lfoot
    lfoot ltoes
    rhipjoint rfemur
    rfemur rtibia
    rtibia rfoot
    rfoot rtoes
    lowerback upperback
    upperback thorax
    thorax lowerneck lclavicle rclavicle
    lowerneck upperneck
    upperneck head
    lclavicle lhumerus
    lhumerus lradius
    lradius lwrist
    lwrist lhand lthumb
    lhand lfingers
    rclavicle rhumerus
    rhumerus rradius
    rradius rwrist
    rwrist rhand rthumb
    rhand rfingers
  end

#!OML:ASF F:\VICON\USERDATA\INSTALL\rory3\rory3.ASF
:FULLY-SPECIFIED
:DEGREES
232
root 0.417916 17.3392 -4.13628 -2.5564 -1.84511 -1.60864
lowerback 13.1747 0.243553 -1.08796
upperback 2.75073 0.121117 -0.966102
thorax -4.49116 0.0676372 -0.417106
lowerneck -11.7848 1.42217 -5.71352
upperneck 2.2151 2.38221 6.11249
head 2.68546 1.3554 3.21092
rclavicle -1.2921e-015 3.18055e-015
rhumerus -27.5665 -10.5561 -56.8431
rradius 67.8048
rwrist 1.63732
rhand -42.9319 5.22365
rfingers 7.12502
rthumb -15.7927 -24.1521
lclavicle -1.2921e-015 3.18055e-015
lhumerus -26.6368 9.82459 65.0903
lradius 77.4243
lwrist 17.6975
lhand -32.5835 18.4346
lfingers 7.12502
lthumb -5.81211 48.3349
rfemur -13.3299 17.026 11.3231
rtibia 45.6495
rfoot -26.5897 -21.5893
rtoes -16.0911
lfemur -15.1099 -5.2269 -4.74633
ltibia 46.4257
lfoot -24.087 3.51534
ltoes -19.6086
233
root 0.403741 17.3521 -4.14854 -2.44146 -1.33196 -1.82587
lowerback 12.9924 0.210391 -0.906924
upperback 2.78458 0.107118 -0.945187
thorax -4.35545 0.058668 -0.49406
lowerneck -11.6409 1.38478 -5.78085
upperneck 2.01068 2.3375 6.20641
head 2.59127 1.33471 3.24518
rclavicle -5.26779e-015 3.02153e-014
rhumerus -27.5016 -9.79388 -56.7884
rradius 68.6153
rwrist 2.00043
rhand -42.9015 5.75356
rfingers 7.12502
rthumb -15.7635 -23.6245
lclavicle -5.26779e-015 3.02153e-014
lhumerus -26.9888 9.75163 65.2485
lradius 77.9812
lwrist 17.6263
lhand -32.1856 17.9913
lfingers 7.12502
lthumb -5.4279 47.9018
rfemur -13.0841 16.7983 11.6257
rtibia 45.2575
rfoot -26.6727 -21.6477
rtoes -15.4758
lfemur -15.2645 -5.88715 -4.43868
ltibia 46.0453
lfoot -23.9849 3.11816
ltoes -19.0714
234
root 0.388267 17.3766 -4.1622 -2.48927 -0.788937 -1.65153
lowerback 12.9788 0.234456 -1.14311
upperback 2.87354 0.105008 -1.03339
thorax -4.25489 0.059756 -0.452246
lowerneck -11.532 1.29004 -5.84955
upperneck 1.84475 2.21658 6.30592
head 2.52248 1.27652 3.2799
rclavicle -1.49089e-015 -4.77083e-015
rhumerus -27.4078 -9.03931 -56.7873
rradius 69.4105
rwrist 2.52654
rhand -42.9169 6.45391
rfingers 7.12502
rthumb -15.7783 -22.923
lclavicle -1.49089e-015 -4.77083e-015
lhumerus -27.2698 9.5342 65.4801
lradius 78.5757
lwrist 17.615
lhand -32.0013 17.7196
lfingers 7.12502
lthumb -5.24997 47.6346
rfemur -12.6214 16.5917 11.514
rtibia 44.7258
rfoot -26.7817 -21.5404
rtoes -14.9125
lfemur -15.1638 -6.5698 -4.61129
ltibia 45.459
lfoot -23.8186 2.88076
ltoes -18.3806
235
root 0.375255 17.4136 -4.16817 -2.47426 -0.389844 -1.48142
lowerback 13.0923 0.307197 -1.40053
upperback 2.73255 0.158971 -1.09872
thorax -4.46547 0.0901557 -0.385538
lowerneck -11.4399 1.19913 -6.0018
upperneck 2.12354 2.09381 6.47306
head 2.60837 1.21789 3.36593
rclavicle -9.93923e-015 1.51076e-014
rhumerus -27.5479 -8.00366 -56.7654
rradius 70.2173
rwrist 3.20263
rhand -42.7389 6.67423
rfingers 7.12502
rthumb -15.6069 -22.7162
lclavicle -9.93923e-015 1.51076e-014
lhumerus -28.066 9.14441 65.6731
lradius 79.3524
lwrist 17.5959
lhand -31.8719 17.4582
lfingers 7.12502
lthumb -5.12509 47.3763
rfemur -12.1991 16.4466 11.3721
rtibia 44.0543
rfoot -26.7368 -21.4496
rtoes -14.2312
lfemur -14.9894 -7.06758 -4.80478
ltibia 44.7557
lfoot -23.5271 2.97337
ltoes -18.0059
236
root 0.364376 17.4596 -4.17301 -2.29833 0.0908937 -1.29754
lowerback 12.9599 0.345278 -1.62858
upperback 2.59489 0.175773 -1.17431
thorax -4.53782 0.101836 -0.338719
lowerneck -11.4844 1.13652 -6.06217
upperneck 2.51729 2.00189 6.5625
head 2.75795 1.17439 3.41533
rclavicle 4.87022e-015 -9.54166e-015
rhumerus -27.5702 -6.94596 -56.7897
rradius 71.0173
rwrist 4.00576
rhand -42.5685 7.04271
rfingers 7.12502
rthumb -15.4428 -22.3604
lclavicle 4.87022e-015 -9.54166e-015
lhumerus -28.6993 8.87476 65.93
lradius 80.0145
lwrist 17.4899
lhand -31.6818 17.1028
lfingers 7.12502
lthumb -4.94152 47.0252
rfemur -11.848 16.1751 11.1669
rtibia 43.2465
rfoot -26.5485 -21.4239
rtoes -13.7514
lfemur -14.9907 -7.49043 -5.01018
ltibia 43.9958
lfoot -23.1173 3.02465
ltoes -17.676
237
root 0.354335 17.5101 -4.17604 -2.11533 0.614211 -1.19942
lowerback 12.7382 0.355915 -1.74418
upperback 2.52293 0.175714 -1.24629
thorax -4.49162 0.103216 -0.347825
lowerneck -11.7009 1.10947 -5.96632
upperneck 3.19601 1.93022 6.79746
head 2.71537 1.16772 3.14065
rclavicle 2.38542e-015 -2.46493e-014
rhumerus -27.4877 -5.94077 -56.9197
rradius 71.8436
rwrist 4.88311
rhand -42.0949 7.55197
rfingers 7.12502
rthumb -14.9866 -21.8857
lclavicle 2.38542e-015 -2.46493e-014
lhumerus -29.133 8.70648 66.185
lradius 80.5956
lwrist 17.1832
lhand -31.4724 16.8106
lfingers 7.12502
lthumb -4.73934 46.7376
rfemur -11.3824 15.8699 11.0907
rtibia 42.3315
rfoot -26.3508 -21.4298
rtoes -13.2768
lfemur -15.0104 -7.89952 -5.12199
ltibia 43.2416
lfoot -22.6437 3.0146
ltoes -17.2193
238
root 0.347979 17.5586 -4.17268 -2.01815 0.915643 -1.4355
lowerback 12.5355 0.395285 -1.53535
upperback 2.45247 0.261384 -1.212
thorax -4.45392 0.143154 -0.442644
lowerneck -11.7285 1.12018 -6.04124
upperneck 3.50959 1.93943 6.88172
head 2.81219 1.17565 3.18297
rclavicle -9.64106e-015 -1.82882e-014
rhumerus -27.4025 -4.74504 -57.1018
rradius 72.703
rwrist 5.7847
rhand -41.4786 7.84055
rfingers 7.12502
rthumb -14.3928 -21.6404
lclavicle -9.64106e-015 -1.82882e-014
lhumerus -29.8322 8.60804 66.3842
lradius 81.3066
lwrist 16.7948
lhand -31.3453 16.5886
lfingers 7.12502
lthumb -4.6166 46.5183
rfemur -10.8435 15.8209 11.442
rtibia 41.3786
rfoot -26.1331 -21.5702
rtoes -12.6247
lfemur -14.8394 -8.08366 -4.86964
ltibia 42.492
lfoot -22.1816 3.08925
ltoes -17.349
239
root 0.341544 17.6079 -4.17032 -1.88537 1.12685 -1.77122
lowerback 12.3391 0.475954 -1.2293
upperback 2.31424 0.412656 -1.1657
thorax -4.48956 0.214482 -0.590384
lowerneck -11.6147 1.14724 -6.03018
upperneck 3.76091 1.95935 6.86856
head 2.86852 1.18355 3.1794
rclavicle -1.19271e-015 -1.03368e-014
rhumerus -27.3892 -3.55454 -57.3145
rradius 73.6052
rwrist 6.5924
rhand -41.1769 8.27377
rfingers 7.12502
rthumb -14.1021 -21.2277
lclavicle -1.19271e-015 -1.03368e-014
lhumerus -30.751 8.44482 66.5659
lradius 82.1107
lwrist 16.512
lhand -31.6882 15.9979
lfingers 7.12502
lthumb -4.94766 45.9202
rfemur -10.4036 15.8651 11.9049
rtibia 40.4084
rfoot -25.7548 -21.8434
rtoes -12.2402
lfemur -14.6959 -8.11316 -4.48269
ltibia 41.7279
lfoot -21.6855 3.14902
ltoes -17.5728
240
root 0.333656 17.6619 -4.17251 -1.72278 1.34692 -1.84554
lowerback 12.181 0.599184 -1.21819
upperback 2.14599 0.576936 -1.18585
thorax -4.57828 0.295765 -0.643587
lowerneck -11.5235 1.16229 -5.9589
upperneck 4.01591 1.9567 6.83576
head 2.93186 1.18072 3.1592
rclavicle 2.27608e-014 -1.03368e-014
rhumerus -27.3374 -2.46408 -57.5287
rradius 74.501
rwrist 7.24353
rhand -40.8852 8.55481
rfingers 7.12502
rthumb -13.8209 -20.966
lclavicle 2.27608e-014 -1.03368e-014
lhumerus -31.6014 8.28616 66.8022
lradius 82.8475
lwrist 16.2686
lhand -32.1812 15.2077
lfingers 7.12502
lthumb -5.42369 45.1183
rfemur -9.98577 15.8743 12.0666
rtibia 39.409
rfoot -25.3703 -22.1015
rtoes -12.0871
lfemur -14.5696 -8.10602 -4.38301
ltibia 40.9365
lfoot -21.1306 3.1478
ltoes -17.4549
241
root 0.325723 17.7177 -4.17466 -1.53502 1.66595 -1.9522
lowerback 11.976 0.669562 -1.14712
upperback 1.9963 0.679703 -1.21757
thorax -4.6206 0.34559 -0.731849
lowerneck -11.533 1.17791 -5.82487
upperneck 4.31341 1.95257 6.74963
head 3.0254 1.17757 3.11421
rclavicle -1.37161e-014 3.97569e-015
rhumerus -27.3192 -1.18933 -57.807
rradius 75.5919
rwrist 7.67392
rhand -40.6997 8.80219
rfingers 7.12502
rthumb -13.6422 -20.7307
lclavicle -1.37161e-014 3.97569e-015
lhumerus -32.3964 8.27925 66.8943
lradius 83.6406
lwrist 15.8587
lhand -32.0943 14.7482
lfingers 7.12502
lthumb -5.33979 44.6609
rfemur -9.5202 15.8487 12.2801
rtibia 38.3342
rfoot -25.0362 -22.4279
rtoes -11.6312
lfemur -14.4739 -8.11486 -4.23574
ltibia 40.1035
lfoot -20.5438 3.11828
ltoes -17.5194
242
root 0.319545 17.7731 -4.17235 -1.31236 2.01636 -2.21959
lowerback 11.6519 0.736418 -0.872762
upperback 1.90617 0.807776 -1.22004
thorax -4.53147 0.404795 -0.905111
lowerneck -11.7598 1.15337 -5.65517
upperneck 4.65946 1.90135 6.6131
head 3.17245 1.15289 3.04885
rclavicle -3.37934e-015 -1.27222e-014
rhumerus -27.2459 0.0479947 -58.0611
rradius 76.7962
rwrist 8.05632
rhand -40.5864 9.31917
rfingers 7.12502
rthumb -13.533 -20.2211
lclavicle -3.37934e-015 -1.27222e-014
lhumerus -33.0948 8.33998 66.8986
lradius 84.5119
lwrist 15.2284
lhand -31.9936 14.6057
lfingers 7.12502
lthumb -5.24252 44.5209
rfemur -9.09175 15.8723 12.6794
rtibia 37.1908
rfoot -24.4883 -23.0879
rtoes -11.9288
lfemur -14.3986 -8.15131 -3.89462
ltibia 39.2206
lfoot -19.9646 3.0065
ltoes -17.6682
243
root 0.320052 17.8332 -4.16257 -1.10013 2.27153 -2.45078
lowerback 11.2539 0.847091 -0.541222
upperback 1.83385 0.999266 -1.24507
thorax -4.37904 0.494621 -1.14084
lowerneck -12.0129 1.12512 -5.59039
upperneck 5.02137 1.85565 6.5573
head 3.32665 1.13314 3.02618
rclavicle 9.44227e-015 4.77083e-015
rhumerus -26.9918 1.02228 -58.2721
rradius 77.7353
rwrist 8.59376
rhand -40.175 10.1895
rfingers 7.12502
rthumb -13.1365 -19.3767
lclavicle 9.44227e-015 4.77083e-015
lhumerus -33.8868 8.46812 66.9036
lradius 85.5127
lwrist 14.636
lhand -31.8792 14.3986
lfingers 7.12502
lthumb -5.13204 44.3165
rfemur -8.62342 15.9608 13.0136
rtibia 35.9931
rfoot -23.8266 -23.8388
rtoes -12.9357
lfemur -14.2176 -8.24236 -3.63816
ltibia 38.3144
lfoot -19.5081 2.95679
ltoes -17.4471
244
root 0.322135 17.8922 -4.15598 -0.84751 2.66707 -2.5915
lowerback 10.833 0.917379 -0.31385
upperback 1.74535 1.12257 -1.27225
thorax -4.23147 0.552666 -1.30799
lowerneck -12.2719 1.13548 -5.62593
upperneck 5.44368 1.8667 6.61156
head 3.49494 1.14505 3.05805
rclavicle 4.47266e-015 -4.77083e-015
rhumerus -26.6069 1.94921 -58.4535
rradius 78.5853
rwrist 9.04113
rhand -39.5398 11.0762
rfingers 7.12502
rthumb -12.5242 -18.5285
lclavicle 4.47266e-015 -4.77083e-015
lhumerus -34.618 8.67319 66.9094
lradius 86.4378
lwrist 14.2614
lhand -31.7946 13.9231
lfingers 7.12502
lthumb -5.05037 43.843
rfemur -8.1224 15.9017 13.2382
rtibia 34.8095
rfoot -23.3286 -24.4929
rtoes -13.2889
lfemur -14.1449 -8.42369 -3.47756
ltibia 37.4004
lfoot -19.0151 2.88847
ltoes -16.9567
245
root 0.32355 17.9427 -4.15345 -0.549953 3.23044 -2.61319
lowerback 10.3859 0.979974 -0.191308
upperback 1.63712 1.21995 -1.35111
thorax -4.09023 0.599275 -1.46462
lowerneck -12.396 1.121 -5.67952
upperneck 5.72792 1.83832 6.76209
head 3.60141 1.14004 3.11699
rclavicle -2.48481e-014 2.14687e-014
rhumerus -26.2503 2.84263 -58.6294
rradius 79.5715
rwrist 9.33526
rhand -39.7478 11.9406
rfingers 7.12502
rthumb -12.7247 -17.6517
lclavicle -2.48481e-014 2.14687e-014
lhumerus -35.1754 8.7828 66.8736
lradius 87.2623
lwrist 14.0034
lhand -31.8651 13.4374
lfingers 7.12502
lthumb -5.11846 43.3556
rfemur -7.68668 15.7162 13.3129
rtibia 33.7055
rfoot -22.9352 -25.0909
rtoes -13.1377
lfemur -14.211 -8.54146 -3.42861
ltibia 36.4867
lfoot -18.4371 2.76623
ltoes -17.0337
